<svg version="1.1" id="Layer_1" xmlns="http://www.w3.org/2000/svg" x="0" y="0" viewBox="0 0 36 36">
<path fill="none" d="M0 0h36v36H0z"></path>
<path fill="#fff" d="M10.9 18.4h14.2V21H10.9zM10.9 22.9h10.5v2.6H10.9z"></path>
<path fill="#1967d2" d="M21.8 9.8l4.5.8 3.7-.8-8.2-8.3-1.2 3.9z"></path>
<path fill="#fff" d="M10.9 13.9h14.2v2.6H10.9z"></path>
<path d="M21.8 9.8V1.5H8.2C7 1.5 6 2.5 6 3.8v28.5c0 1.2 1 2.2 2.2 2.2h19.5c1.2 0 2.2-1 2.2-2.2V9.8h-8.1zM21 25.1h-9.8v-1.9H21v1.9zm3.8-4.5H11.2v-1.9h13.5v1.9zm0-4.5H11.2v-1.9h13.5v1.9z" fill="#4285f4"></path>
</svg>